<?xml version="1.0" standalone="no"?>
<!DOCTYPE svg PUBLIC "-//W3C//DTD SVG 20010904//EN"
 "http://www.w3.org/TR/2001/REC-SVG-20010904/DTD/svg10.dtd">
<svg version="1.0" xmlns="http://www.w3.org/2000/svg"
 width="500.000000pt" height="500.000000pt" viewBox="0 0 500.000000 500.000000"
 preserveAspectRatio="xMidYMid meet">
<metadata>
Created by potrace 1.14, written by Peter Selinger 2001-2017
</metadata>
<g transform="translate(0.000000,500.000000) scale(0.100000,-0.100000)"
fill="#000000" stroke="none">
<path d="M1572 3646 c-63 -65 -196 -119 -320 -132 -43 -5 -59 -10 -55 -19 2
-7 12 -12 21 -10 9 1 31 -4 47 -13 54 -27 72 -62 91 -172 17 -106 13 -1372 -5
-1447 -19 -78 -48 -115 -104 -133 -26 -8 -47 -19 -47 -25 0 -16 572 -13 577 3
3 7 -4 12 -17 12 -37 0 -85 29 -105 62 -41 71 -44 115 -45 741 l0 598 36 -5
c49 -8 91 -40 110 -84 17 -40 80 -215 201 -562 41 -118 101 -289 133 -380 32
-91 75 -214 96 -275 20 -60 39 -112 41 -114 5 -7 182 -8 192 -2 5 3 61 156
125 340 64 183 120 340 125 348 5 10 12 -1 24 -39 8 -29 39 -118 67 -198 28
-80 71 -202 95 -273 68 -198 53 -182 165 -182 l95 0 26 75 c14 41 29 82 32 90
3 8 38 107 77 220 39 113 84 241 100 285 16 44 45 127 65 185 191 547 179 521
239 549 23 12 52 21 64 21 20 0 33 19 15 20 -11 1 -336 1 -395 0 -27 0 -48 -4
-48 -10 0 -5 11 -10 25 -10 34 0 86 -23 107 -46 23 -27 55 -140 52 -183 -1
-20 -46 -160 -99 -311 -93 -262 -210 -595 -236 -670 -13 -40 -29 -61 -29 -41
0 8 -15 57 -34 110 -171 479 -366 1049 -366 1068 0 29 31 61 67 69 45 9 56 14
50 20 -4 5 -359 8 -494 5 -45 -1 -41 -17 5 -25 46 -7 86 -36 107 -77 8 -15 31
-75 51 -131 19 -57 39 -112 44 -123 4 -11 30 -84 58 -162 l49 -142 -24 -68
c-13 -37 -30 -86 -37 -108 -33 -97 -135 -383 -148 -415 l-14 -34 -43 124 c-23
69 -57 168 -76 220 -18 52 -77 219 -130 370 -53 151 -109 313 -125 359 -47
132 -38 171 43 186 20 4 37 12 37 19 0 8 -71 10 -260 9 l-260 -2 -2 274 -3
274 -33 -33z"/>
</g>
</svg>
